<?xml version="1.0" encoding="UTF-8"?>
<svg version="1.1" xmlns="http://www.w3.org/2000/svg" width="1280" height="915">
<path d="M0 0 C422.4 0 844.8 0 1280 0 C1280 301.95 1280 603.9 1280 915 C857.6 915 435.2 915 0 915 C0 613.05 0 311.1 0 0 Z " fill="#FE0000" transform="translate(0,0)"/>
<path d="M0 0 C12.9258719 4.99619086 26.71038854 7.37417393 40.453125 8.66015625 C37.74517704 12.30643966 35.07173212 14.908006 31.328125 17.47265625 C30.45929688 18.07722656 29.59046875 18.68179688 28.6953125 19.3046875 C26.453125 20.66015625 26.453125 20.66015625 24.453125 20.66015625 C24.453125 21.32015625 24.453125 21.98015625 24.453125 22.66015625 C25.47148438 22.89347656 26.48984375 23.12679687 27.5390625 23.3671875 C31.64021796 24.5446959 34.77244896 26.70606911 38.078125 29.34765625 C38.64426514 29.79028809 39.21040527 30.23291992 39.79370117 30.68896484 C43.87277843 33.96907205 46.81581857 37.16696751 49.453125 41.66015625 C41.533125 42.15515625 41.533125 42.15515625 33.453125 42.66015625 C35.70125 43.34078125 37.949375 44.02140625 40.265625 44.72265625 C47.27689597 46.97334862 53.74201936 49.89713929 59.453125 54.66015625 C59.783125 55.65015625 60.113125 56.64015625 60.453125 57.66015625 C55.998125 58.15515625 55.998125 58.15515625 51.453125 58.66015625 C53.76857103 61.34396869 56.10438322 64.0055683 58.453125 66.66015625 C58.92991699 67.20623535 59.40670898 67.75231445 59.89794922 68.31494141 C61.46762372 70.10694941 63.05271232 71.88430338 64.640625 73.66015625 C65.15141602 74.24821045 65.66220703 74.83626465 66.18847656 75.44213867 C67.83218536 77.31186588 67.83218536 77.31186588 70.453125 79.66015625 C74.26718585 80.05875977 74.26718585 80.05875977 76.12890625 78.41015625 C76.66902344 77.83265625 77.20914062 77.25515625 77.765625 76.66015625 C78.36761719 76.02207031 78.96960938 75.38398438 79.58984375 74.7265625 C84.3313703 69.46813997 88.94723381 64.12184254 93.453125 58.66015625 C90.483125 58.33015625 87.513125 58.00015625 84.453125 57.66015625 C86.0662893 52.82066336 90.14400919 51.1023966 94.453125 48.66015625 C99.68201031 46.20911626 104.84624417 44.06187646 110.453125 42.66015625 C105.503125 42.33015625 100.553125 42.00015625 95.453125 41.66015625 C101.16529387 33.09190294 108.13667961 27.17772213 117.453125 22.66015625 C118.443125 22.66015625 119.433125 22.66015625 120.453125 22.66015625 C120.453125 22.00015625 120.453125 21.34015625 120.453125 20.66015625 C119.89882813 20.40105469 119.34453125 20.14195312 118.7734375 19.875 C116.14380358 18.49820513 113.76649773 16.91495971 111.328125 15.22265625 C110.02488281 14.32740234 110.02488281 14.32740234 108.6953125 13.4140625 C106.453125 11.66015625 106.453125 11.66015625 104.453125 8.66015625 C105.06381836 8.58611572 105.67451172 8.5120752 106.30371094 8.43579102 C119.39147775 6.77495001 131.59347304 4.22228377 144.078125 -0.08984375 C156.82757408 -4.44109392 167.08551239 -6.45012753 180.3046875 -2.484375 C182.453125 -1.33984375 182.453125 -1.33984375 184.69921875 1.234375 C188.42713443 4.51811349 191.08695968 4.3352379 195.890625 4.28515625 C201.5414372 4.28515625 205.49755769 4.55636674 210.453125 7.66015625 C213.70021389 11.55666291 213.74529102 14.69333393 213.453125 19.66015625 C212.793125 19.66015625 212.133125 19.66015625 211.453125 19.66015625 C210.9375 19.00015625 210.421875 18.34015625 209.890625 17.66015625 C206.772227 15.10147071 204.86058308 14.96913977 200.90625 15.1328125 C195.24373993 16.35007183 190.61713872 19.91413567 187.453125 24.66015625 C198.74448445 24.95301572 210.63719667 25.0974136 220.453125 18.66015625 C222.59219831 16.38539545 224.54885233 14.00838181 226.52734375 11.59375 C228.55963426 9.5532149 229.58405849 8.95242581 232.390625 8.53515625 C235.453125 8.66015625 235.453125 8.66015625 236.453125 9.66015625 C237.03461091 13.22175743 237.0629849 15.67026496 235.13671875 18.796875 C229.60352371 25.49365021 223.30501945 27.8439516 214.828125 29.28515625 C214.115354 29.40995361 213.40258301 29.53475098 212.66821289 29.66333008 C203.33202352 31.16890925 193.89095193 31.39261277 184.453125 31.66015625 C189.79819923 35.30058518 194.14847606 35.35772945 200.453125 34.66015625 C202.78423157 33.99038398 202.78423157 33.99038398 204.890625 33.09765625 C208.49647139 31.6426656 209.03681329 31.52639127 212.453125 32.66015625 C208.46491578 38.90257068 202.87621913 40.79056557 195.92993164 42.55517578 C191.16702742 43.59490802 186.39333785 44.56482581 181.61132812 45.51196289 C159.5822773 49.91518749 140.39796795 57.90859887 127.453125 77.28515625 C121.87082625 86.74962918 119.65178125 95.75256248 122.14453125 106.6953125 C124.08786538 112.73672364 126.12548446 116.18560807 131.453125 119.66015625 C136.02789487 121.94754119 142.71960974 121.24029078 147.625 120.19921875 C152.94757347 118.1973659 156.01201192 114.44697772 158.57421875 109.4921875 C159.75607482 105.6839846 159.74444154 102.18560105 159.703125 98.22265625 C159.71085937 97.48466797 159.71859375 96.74667969 159.7265625 95.98632812 C159.71051496 91.4729566 159.08484307 87.92247683 157.453125 83.66015625 C156.765625 80.16015625 156.765625 80.16015625 157.453125 76.66015625 C163.1377217 71.65952164 170.52678122 68.36865197 177.265625 65.03515625 C178.28519287 64.52952148 179.30476074 64.02388672 180.35522461 63.50292969 C188.04992843 59.73707841 195.8184698 56.1489093 203.66781616 52.71856689 C205.48119686 51.92521846 207.29009059 51.12163921 209.09887695 50.31787109 C219.96472552 45.65470566 219.96472552 45.65470566 225.453125 46.66015625 C226.21625 47.67078125 226.979375 48.68140625 227.765625 49.72265625 C230.02428566 52.77249813 230.02428566 52.77249813 232.38671875 53.046875 C254.03988523 51.76886349 274.47375238 37.20455042 289.06640625 22.3828125 C292.33544907 18.65364254 294.97057208 14.63940167 297.56640625 10.421875 C299.6134501 7.42547747 301.71449556 5.04138593 304.453125 2.66015625 C307.890625 2.41015625 307.890625 2.41015625 311.453125 3.66015625 C314.94952081 6.81238782 318.23359473 10.35328898 318.69140625 15.1640625 C318.93254055 25.10133411 316.37220275 31.71168041 310.453125 39.66015625 C310.00710938 40.2634375 309.56109375 40.86671875 309.1015625 41.48828125 C297.24839089 56.31934327 272.82248068 68.69278553 254.14550781 70.9375 C250.76076759 71.27741211 247.38232423 71.60646019 243.98583984 71.80273438 C238.99158957 72.16459136 236.02823093 72.82362953 232.453125 76.66015625 C231.64294247 80.46801414 232.06005223 82.04195173 234.14453125 85.3203125 C238.57102525 89.50832363 245.3591643 88.28958125 251.015625 88.16015625 C252.22798828 88.16273438 253.44035156 88.1653125 254.68945312 88.16796875 C274.36455303 87.95697572 287.9064653 81.13868523 302.5859375 68.87890625 C305.75333579 66.8114831 308.81424213 67.01756092 312.453125 67.66015625 C315.17444059 69.26503468 316.05610206 70.56195829 317.12109375 73.5078125 C318.68266955 80.86190024 315.29985894 86.55536271 311.453125 92.66015625 C308.890625 95.66015625 308.890625 95.66015625 306.453125 97.66015625 C305.69 98.30855469 304.926875 98.95695312 304.140625 99.625 C290.00947541 110.3260595 269.05992299 111.52712373 252.04638672 109.35253906 C248.59654556 108.79071411 245.21023037 108.09079217 241.80078125 107.31640625 C238.57257215 106.68357179 235.73201935 106.4646931 232.453125 106.66015625 C232.123125 106.99015625 231.793125 107.32015625 231.453125 107.66015625 C231.70150255 112.53384668 231.70150255 112.53384668 234.09375 116.63671875 C246.96957087 127.67922738 261.70814927 130.82434521 278.28417969 129.87158203 C288.15433984 128.90945251 295.90351648 123.18842408 303.515625 117.28515625 C307.58603638 115.03343932 309.84293294 115.0555409 314.453125 115.66015625 C317.38069644 117.85583483 317.43694497 119.55948051 318.015625 123.16015625 C317.65470414 131.22072214 312.93972404 138.69016149 307.265625 144.16015625 C296.54248164 152.71017089 285.11604865 152.38093377 272.1015625 151.41015625 C261.05778135 150.09476792 250.57743554 145.97115726 240.828125 140.72265625 C237.58434952 139.0021402 236.64504247 138.65022948 232.828125 138.84765625 C231.6525 139.24984375 231.6525 139.24984375 230.453125 139.66015625 C229.63242458 142.86834881 229.14995846 144.91512754 230.41796875 148.03125 C233.27537237 151.72229153 236.71204668 153.69066241 240.703125 156.03515625 C241.50145752 156.51267334 242.29979004 156.99019043 243.12231445 157.48217773 C257.31777668 165.83601352 271.51550278 172.88242477 288.453125 170.66015625 C292.69617389 169.39316636 296.54194891 167.72401215 300.453125 165.66015625 C303.64219765 164.06561992 306.98257182 164.27453923 310.453125 164.66015625 C315.02256944 166.79904514 315.02256944 166.79904514 316.453125 169.66015625 C317.1159897 174.99567376 316.83383459 179.58800916 313.85546875 184.15625 C308.72598581 189.65722752 301.09813071 190.75002465 293.93530273 191.00366211 C274.03737844 191.30105896 255.66865614 183.68594608 238.6875 173.82421875 C236.58913008 172.73101204 234.76441211 172.11605233 232.453125 171.66015625 C232.27110878 175.66451317 232.30865528 178.25232824 234.453125 181.66015625 C237.42559606 184.44312552 240.65153063 186.89797705 243.86035156 189.40283203 C245.42849032 190.6407098 246.96851431 191.91393743 248.5078125 193.1875 C254.22483994 197.86147116 260.05512451 201.79922102 266.640625 205.16015625 C267.26928467 205.48636963 267.89794434 205.81258301 268.5456543 206.14868164 C279.31893608 211.38555817 290.18914528 210.81513714 301.90429688 210.31835938 C310.67923624 210.1277061 310.67923624 210.1277061 314.74609375 212.92578125 C317.01091758 216.55364551 317.17362209 219.5557515 316.453125 223.66015625 C314.60393345 229.09895491 311.07725662 232.4337735 306.453125 235.66015625 C293.22984234 240.06791714 279.82466861 234.91163077 268 229.05566406 C259.91598847 224.89052997 252.57259477 219.73594337 245.23046875 214.39453125 C238.55564008 208.91264406 238.55564008 208.91264406 230.453125 207.66015625 C229.11018256 208.78735509 229.11018256 208.78735509 229.203125 211.72265625 C229.76331144 220.5455927 233.54087902 225.56646207 239.515625 231.66015625 C240.19101318 232.36076172 240.86640137 233.06136719 241.56225586 233.78320312 C256.45226796 249.02659774 271.66485663 258.56636727 293.390625 258.97265625 C298.45738082 258.95611624 302.61776114 258.15019044 307.453125 256.66015625 C311.07528459 256.23401983 312.74230803 256.2409565 315.890625 258.09765625 C317.93768291 261.45483122 317.69510961 263.47248299 317.0546875 267.27734375 C316.09955412 271.06066429 315.06355784 274.7016657 312.453125 277.66015625 C303.31713499 282.73700601 291.54560079 281.92636357 281.5625 279.8515625 C262.74873941 273.64473966 246.04188167 260.49566168 234.1875 244.8046875 C232.45772284 242.44789757 232.45772284 242.44789757 229.453125 240.66015625 C228.133125 240.66015625 226.813125 240.66015625 225.453125 240.66015625 C226.16106936 259.06670974 243.10974013 275.79706122 255.80859375 287.90625 C267.79613179 298.20709927 281.09765666 303.26585576 296.7578125 303.87890625 C297.70438721 303.91701416 298.65096191 303.95512207 299.6262207 303.99438477 C301.52784364 304.06235152 303.43018713 304.1127946 305.33276367 304.14428711 C306.20908447 304.16885986 307.08540527 304.19343262 307.98828125 304.21875 C308.775979 304.23220459 309.56367676 304.24565918 310.37524414 304.25952148 C312.98504745 304.76271585 313.87743437 305.54516216 315.453125 307.66015625 C316.08265741 312.33668274 315.5297317 315.91257247 312.98828125 319.95703125 C308.08342774 325.39854812 300.01642625 329.36826881 292.78125 329.9609375 C291.42201046 329.98052117 290.06245967 329.98383236 288.703125 329.97265625 C287.9901123 329.9670166 287.27709961 329.96137695 286.54248047 329.95556641 C280.95517718 329.82704952 276.44894824 329.13436852 271.453125 326.66015625 C270.29490234 326.10908203 270.29490234 326.10908203 269.11328125 325.546875 C259.07840188 320.17274529 251.51476714 311.22042823 244.2265625 302.65234375 C241.3302251 299.39874887 238.19797228 296.38540229 235.078125 293.34765625 C232.37373746 290.57887853 229.84774309 287.70206514 227.31347656 284.77880859 C224.23143292 281.26883816 221.0300139 277.87303623 217.828125 274.47265625 C217.18617188 273.78751953 216.54421875 273.10238281 215.8828125 272.39648438 C214.08010795 270.47741673 212.26749398 268.56818696 210.453125 266.66015625 C209.97238525 266.14155029 209.49164551 265.62294434 208.99633789 265.08862305 C205.93921523 261.8692364 203.92168008 260.97191591 199.453125 260.66015625 C196.29875701 265.39170823 196.94193339 270.12335357 197.453125 275.66015625 C199.2198297 284.4106802 203.57446407 291.03216094 210.453125 296.66015625 C215.67979556 300.01241818 221.17178681 302.88810232 226.71655273 305.67382812 C228.453125 306.66015625 228.453125 306.66015625 230.453125 308.66015625 C230.88402382 312.53824562 231.10819817 314.76246339 228.765625 317.97265625 C224.27671276 321.24834896 220.61415423 322.29621632 215.11328125 321.515625 C202.98591552 317.61563514 193.5337778 306.99168359 187.765625 296.09765625 C184.98627645 290.26672228 182.89825451 284.37744047 181.13793945 278.16577148 C179.97037023 274.06382687 178.57471799 270.36736085 176.453125 266.66015625 C173.65442473 265.26080612 171.54813708 265.4075022 168.453125 265.66015625 C165.91539016 267.23530202 165.52300354 268.40904191 164.72265625 271.28515625 C164.38701087 275.48802014 165.44198562 278.68766795 166.953125 282.53515625 C167.36208008 283.59633667 167.36208008 283.59633667 167.77929688 284.67895508 C170.69370299 291.84518893 174.77934858 296.60124796 180.828125 301.34765625 C183.453125 303.66015625 183.453125 303.66015625 184.328125 306.47265625 C184.39 307.55546875 184.39 307.55546875 184.453125 308.66015625 C181.96662218 311.25476789 179.75335918 312.00467413 176.265625 312.28515625 C168.70292669 312.01195533 163.72801401 306.18972557 158.828125 300.97265625 C151.83406541 292.58947627 147.18048382 282.42656789 142.453125 272.66015625 C140.03692677 272.40984648 140.03692677 272.40984648 137.453125 272.66015625 C134.94696861 276.41939084 135.37180542 277.93885475 135.96777344 282.23486328 C136.73246444 286.05601037 138.04604812 289.52432684 139.578125 293.09765625 C139.88943359 293.83556396 140.20074219 294.57347168 140.52148438 295.33374023 C143.14419281 301.34499325 146.31671953 306.55765154 150.453125 311.66015625 C150.94941406 312.34078125 151.44570313 313.02140625 151.95703125 313.72265625 C163.16889285 328.10980697 182.33548602 334.02093081 199.3828125 337.8984375 C202.453125 338.66015625 202.453125 338.66015625 203.453125 339.66015625 C203.85546875 342.36328125 203.85546875 342.36328125 203.453125 345.66015625 C201.67839247 347.84714131 200.08437753 349.55930206 198.015625 351.41015625 C194.26806694 354.66421118 194.26806694 354.66421118 191.453125 358.66015625 C192.72671875 358.89734375 194.0003125 359.13453125 195.3125 359.37890625 C202.68679276 360.85480417 209.96682192 362.71384278 217.25878906 364.54638672 C219.7107195 365.16206322 222.16387607 365.77266504 224.6171875 366.3828125 C226.19278392 366.7770418 227.76830737 367.17156283 229.34375 367.56640625 C230.0688678 367.74667358 230.7939856 367.92694092 231.54107666 368.1126709 C234.61445913 368.88805689 237.60201456 369.71391805 240.58496094 370.79101562 C245.12025052 372.1653458 248.10998729 372.29019438 252.44165039 370.25830078 C256.60700409 367.62777113 256.60700409 367.62777113 260.73950195 364.94628906 C262.4981246 363.79659706 264.27878455 362.68910137 266.06445312 361.58203125 C272.49089995 357.47040028 276.80374095 353.86988094 279.61889648 346.62451172 C280.453125 344.66015625 280.453125 344.66015625 282.453125 343.66015625 C286.40515454 343.52842193 289.8205037 343.53849831 293.703125 344.28515625 C296.90729543 344.72208858 297.66571556 344.09609445 300.453125 342.66015625 C305.68368172 342.17584544 308.98159257 342.89206475 313.453125 345.66015625 C313.783125 346.32015625 314.113125 346.98015625 314.453125 347.66015625 C313.86144531 347.758125 313.26976562 347.85609375 312.66015625 347.95703125 C307.59815658 348.91493004 304.15241658 349.85517063 300.453125 353.66015625 C299.11041679 355.6538745 297.77659006 357.65361245 296.453125 359.66015625 C294.04410312 361.77717548 292.52180117 362.63726419 289.453125 363.66015625 C288.4734375 363.56476563 287.49375 363.469375 286.484375 363.37109375 C279.87927042 362.61262828 279.87927042 362.61262828 273.75585938 364.71923828 C270.25346467 367.67745749 267.39838654 371.16402172 264.453125 374.66015625 C263.793125 374.99015625 263.133125 375.32015625 262.453125 375.66015625 C266.57863369 375.83460852 270.70268496 375.96086512 274.83105469 376.04467773 C276.23182616 376.07964867 277.63234642 376.12724657 279.03222656 376.18823242 C288.81558809 376.75544887 288.81558809 376.75544887 297.171875 372.2578125 C297.72810547 371.63527588 298.28433594 371.01273926 298.85742188 370.37133789 C301.52975951 367.5056074 303.85461928 366.74072433 307.703125 366.22265625 C313.34593962 366.88098462 317.47161335 369.6786446 321.453125 373.66015625 C323.0928125 374.06234375 323.0928125 374.06234375 324.765625 374.47265625 C328.88506638 375.79925602 330.65075447 377.43318413 333.453125 380.66015625 C333.123125 381.32015625 332.793125 381.98015625 332.453125 382.66015625 C331.463125 382.33015625 330.473125 382.00015625 329.453125 381.66015625 C324.02903277 381.07900351 320.91356857 381.72835818 316.015625 384.16015625 C311.12845679 386.54612464 306.86845382 387.88626844 301.453125 386.66015625 C300.7017627 386.16225586 299.95040039 385.66435547 299.17626953 385.15136719 C296.08505619 383.45859947 294.30711143 383.29814836 290.8125 383.33203125 C289.74128906 383.3371875 288.67007812 383.34234375 287.56640625 383.34765625 C286.45652344 383.36828125 285.34664062 383.38890625 284.203125 383.41015625 C283.10871094 383.4153125 282.01429688 383.42046875 280.88671875 383.42578125 C274.67134428 383.48532975 268.61581411 383.85406611 262.453125 384.66015625 C269.50813338 389.98879457 274.47878114 392.2228068 283.203125 391.78515625 C288.95288425 391.50582084 293.11938925 391.49834357 297.91015625 394.98046875 C304.5595432 402.21904188 307.703125 412.2711161 307.703125 422.03515625 C307.620625 423.23140625 307.538125 424.42765625 307.453125 425.66015625 C305.453125 422.66015625 305.453125 422.66015625 304.4375 420.6171875 C302.9766366 418.0791685 301.79152001 416.45081909 299.453125 414.66015625 C295.83440075 414.2397775 292.44704034 414.41384593 288.8125 414.609375 C283.89292698 414.68374064 282.08924084 413.9730618 278.453125 410.66015625 C277.796875 408.6015625 277.796875 408.6015625 277.265625 406.28515625 C276.39236907 403.03174544 275.82715141 401.92378454 273.03125 399.953125 C269.88063985 398.40638763 266.68095631 397.03756609 263.453125 395.66015625 C261.36638684 394.52053541 259.28293338 393.37487538 257.203125 392.22265625 C252.18826532 389.76375731 248.81920112 388.96702038 243.453125 390.66015625 C242.23753906 390.97597656 241.02195312 391.29179688 239.76953125 391.6171875 C232.67298769 393.38498593 232.67298769 393.38498593 226.80859375 397.40625 C225.94291849 399.11918189 225.1935843 400.88949271 224.453125 402.66015625 C219.41072119 407.08512286 215.20401009 407.18958341 208.828125 407.16015625 C202.47255606 406.92843037 202.47255606 406.92843037 196.9453125 409.55078125 C195.54385585 411.53189798 194.40863477 413.43063345 193.453125 415.66015625 C192.21590055 411.9484829 191.89453081 408.51747559 192.453125 404.66015625 C194.1056418 402.09590605 195.8313888 400.257023 198.015625 398.16015625 C199.61527443 396.62023325 199.61527443 396.62023325 200.828125 394.16015625 C202.75651045 391.19340941 204.22603524 390.08607963 207.453125 388.66015625 C210.79452294 388.36959991 213.43861842 388.65690747 216.71484375 389.390625 C221.36118514 389.72562767 223.41141577 388.56095446 227.390625 386.22265625 C228.53402344 385.56394531 229.67742187 384.90523437 230.85546875 384.2265625 C231.71269531 383.70964844 232.56992187 383.19273437 233.453125 382.66015625 C224.61955114 379.78842242 215.79011723 377.50664499 206.703125 375.59765625 C193.88917737 372.89885276 193.88917737 372.89885276 188.5 370.9765625 C184.96832158 369.76755947 182.21336374 368.96323787 178.453125 369.66015625 C176.14243864 371.39825744 174.27070866 373.00211832 172.265625 375.03515625 C166.616625 380.55115625 166.616625 380.55115625 163.453125 382.66015625 C160.23650786 382.52683155 158.89156657 382.12104689 156.65551758 379.77050781 C155.85343872 378.54799316 155.85343872 378.54799316 155.03515625 377.30078125 C154.43912598 376.39392578 153.8430957 375.48707031 153.22900391 374.55273438 C150.38305848 369.91721589 147.74481305 365.18456792 145.140625 360.41015625 C138.5243454 348.54448721 131.73865736 337.70016929 122.203125 327.97265625 C121.719646 327.47870361 121.23616699 326.98475098 120.73803711 326.47583008 C116.65905571 322.49884068 112.2094379 319.23456174 106.328125 319.22265625 C102.47161645 319.32913419 102.47161645 319.32913419 100.015625 321.47265625 C95.91530296 327.21310711 97.08364395 334.91886998 97.453125 341.66015625 C98.01121055 344.93186877 99.06518754 347.65379352 100.453125 350.66015625 C101.09701172 352.1915625 101.09701172 352.1915625 101.75390625 353.75390625 C108.74559866 369.15991831 119.43524895 381.49613717 133.71435547 390.55419922 C135.28019515 391.55016296 136.80893363 392.60388736 138.33203125 393.6640625 C145.72774157 398.19827466 152.63924348 398.14613756 161.06884766 397.70385742 C166.39678889 397.44880167 169.80793917 397.65049405 174.453125 400.66015625 C175.453125 401.66015625 175.453125 401.66015625 175.828125 404.41015625 C175.453125 407.66015625 175.453125 407.66015625 173.515625 410.28515625 C165.17281948 416.75508706 155.86137862 418.77861587 145.453125 417.66015625 C138.65505008 415.42322951 133.83386924 410.4584916 128.91015625 405.453125 C125.84766005 403.21833047 124.16554009 403.15181725 120.453125 403.66015625 C119.793125 404.32015625 119.133125 404.98015625 118.453125 405.66015625 C118.78829082 412.99317804 123.45180513 416.78668967 128.453125 421.66015625 C137.83878644 430.21121129 145.56037014 433.84746693 158.21875 434.97265625 C161.91744207 435.75885167 163.71604979 437.10829666 166.453125 439.66015625 C166.16661517 443.09827419 165.71879273 444.40186818 163.203125 446.84765625 C156.04960971 451.56247314 148.73516928 451.56109719 140.453125 450.66015625 C131.71290722 448.06771877 125.41674398 442.38406499 119.046875 436.1484375 C114.55057279 431.57559608 114.55057279 431.57559608 108.453125 430.66015625 C107.9703556 439.67185172 111.7453633 448.69934332 117.328125 455.78515625 C123.39148394 461.97321152 130.2020141 463.20340494 138.59765625 464.16796875 C141.453125 464.66015625 141.453125 464.66015625 144.453125 466.66015625 C144.38447091 470.09286068 144.26658415 472.71183414 141.96875 475.390625 C136.83446982 479.83375208 132.7034409 482.21569732 125.8203125 482.03515625 C121.61548707 481.36904529 118.72629108 479.27868911 115.453125 476.66015625 C114.87949219 476.221875 114.30585937 475.78359375 113.71484375 475.33203125 C108.0882704 470.41686373 104.94144756 463.79745963 101.46875 457.3046875 C99.99586327 454.56764234 98.42575382 452.0760023 96.453125 449.66015625 C94.49418139 449.77322322 94.49418139 449.77322322 92.453125 450.66015625 C88.98594048 457.63115048 89.6665513 465.12298338 92.078125 472.34765625 C96.00775839 481.98071589 103.06324296 488.53315539 110.453125 495.66015625 C109.18216649 499.09053653 107.71809787 501.99626983 105.65917969 505.01635742 C105.09809509 505.84459518 104.5370105 506.67283295 103.95892334 507.52616882 C103.35372864 508.40956436 102.74853394 509.2929599 102.125 510.203125 C101.49837463 511.12676346 100.87174927 512.05040192 100.22613525 513.00202942 C98.22293079 515.95363621 96.21351043 518.90093682 94.203125 521.84765625 C92.20772915 524.77699009 90.21378008 527.70727805 88.22296143 530.63972473 C86.98584064 532.46154426 85.74605991 534.28156154 84.50311279 536.09941101 C81.01550457 541.23026517 77.76950566 546.42717622 74.7197876 551.83149719 C74.30178894 552.43495468 73.88379028 553.03841217 73.453125 553.66015625 C72.793125 553.66015625 72.133125 553.66015625 71.453125 553.66015625 C69.84662942 551.29728247 68.3618894 548.91950044 66.890625 546.47265625 C60.30481344 535.76367634 53.25734759 525.37621247 46.203125 514.97265625 C45.62625946 514.12136139 45.04939392 513.27006653 44.45504761 512.39297485 C41.12489982 507.47942979 37.79074615 502.56862763 34.453125 497.66015625 C36.24165092 493.76687825 38.53601988 491.56766259 41.703125 488.66015625 C48.19099037 482.47558109 53.96637385 474.14705141 54.65625 464.953125 C54.7459641 459.0095656 54.79576895 454.67412218 51.453125 449.66015625 C48.86694622 450.01606811 47.75539576 450.26777964 46.13208008 452.375 C45.55816528 453.47521484 45.55816528 453.47521484 44.97265625 454.59765625 C44.53526123 455.40654297 44.09786621 456.21542969 43.6472168 457.04882812 C43.1912915 457.91056641 42.73536621 458.77230469 42.265625 459.66015625 C37.3485669 468.54471462 31.78882208 478.43025091 21.453125 481.66015625 C15.36643408 482.65180814 11.20599537 481.64472508 6.18359375 478.0859375 C2.89799717 475.37884325 0.67867826 473.27662129 0.078125 468.97265625 C0.453125 466.66015625 0.453125 466.66015625 2.453125 464.66015625 C4.46233193 464.29694237 6.48713344 464.01766172 8.515625 463.78515625 C16.72721061 462.59782985 23.78061911 460.78045799 29.03515625 453.98046875 C33.48789708 446.69416557 36.91742021 439.32700019 36.453125 430.66015625 C34.17014291 430.23487441 34.17014291 430.23487441 31.453125 430.66015625 C28.82123234 432.83572648 28.82123234 432.83572648 26.328125 435.72265625 C19.5659892 442.92701205 11.12853488 450.01728363 0.96484375 450.99609375 C-7.61069004 451.08368858 -14.09970024 450.97256814 -20.609375 444.66015625 C-21.546875 442.66015625 -21.546875 442.66015625 -21.484375 440.59765625 C-20.22246905 437.98971728 -19.03884788 437.16983287 -16.546875 435.66015625 C-13.9837058 435.09999344 -11.50982706 434.65710643 -8.921875 434.28515625 C5.42972933 431.83189055 15.77508785 424.17316997 24.765625 412.78515625 C26.70672696 409.82949761 26.70672696 409.82949761 26.328125 406.78515625 C25.63421474 404.71304087 25.63421474 404.71304087 24.453125 403.66015625 C20.76687796 403.22740023 19.03846266 403.23301796 15.99609375 405.453125 C15.21878906 406.24332031 14.44148437 407.03351563 13.640625 407.84765625 C6.87135904 414.22464677 2.05264125 417.89272704 -7.484375 418.22265625 C-15.08760012 417.9270665 -22.02808842 416.42709541 -27.609375 410.97265625 C-28.5684375 409.82796875 -28.5684375 409.82796875 -29.546875 408.66015625 C-29.876875 408.33015625 -30.206875 408.00015625 -30.546875 407.66015625 C-30.984375 404.84765625 -30.984375 404.84765625 -30.546875 401.66015625 C-26.14323442 397.59581257 -22.86311696 397.2993232 -16.99414062 397.50390625 C-15.16597806 397.60741156 -13.33785233 397.71156974 -11.50976562 397.81640625 C-4.88284078 398.04640798 -0.33991163 396.86898415 5.453125 393.66015625 C6.40960937 393.13035156 7.36609375 392.60054687 8.3515625 392.0546875 C26.97001755 380.16119492 42.38379947 363.81681808 47.453125 341.66015625 C47.8025624 337.86726675 47.8025624 337.86726675 47.765625 334.03515625 C47.79076172 332.12863281 47.79076172 332.12863281 47.81640625 330.18359375 C47.43080763 326.4437018 46.72882099 324.61269859 44.453125 321.66015625 C40.71308014 319.16679301 37.78070409 318.80243787 33.453125 319.66015625 C30.38068163 321.22408534 27.98918276 323.34320642 25.453125 325.66015625 C24.669375 326.35238281 23.885625 327.04460937 23.078125 327.7578125 C11.13505821 338.93577657 3.63958235 353.53346647 -4.28198242 367.6484375 C-7.34854015 373.07054935 -10.31527152 378.0739041 -14.546875 382.66015625 C-19.21843143 382.16751939 -21.63803245 380.29330321 -25.171875 377.28515625 C-26.11289062 376.49367188 -27.05390625 375.7021875 -28.0234375 374.88671875 C-30.546875 372.66015625 -30.546875 372.66015625 -31.9465332 371.01049805 C-33.44785825 369.47794948 -33.44785825 369.47794948 -35.49438477 369.50463867 C-40.94498789 370.31292621 -46.18229719 371.47735684 -51.484375 372.97265625 C-57.99498586 374.75279551 -64.51011964 376.36829215 -71.109375 377.78515625 C-77.35310423 379.12999061 -83.47781572 380.64730242 -89.546875 382.66015625 C-81.22839152 387.66122353 -75.35561409 390.69255648 -65.38671875 388.83203125 C-61.79198766 388.61446843 -60.35603674 389.4693022 -57.546875 391.66015625 C-56.52756219 393.38024662 -55.51098257 395.10430411 -54.58984375 396.87890625 C-53.00731479 399.58165233 -50.83772594 401.55504998 -48.546875 403.66015625 C-46.67043739 405.53659386 -47.36702513 408.15821326 -47.31640625 410.65234375 C-47.546875 412.66015625 -47.546875 412.66015625 -49.546875 415.66015625 C-49.98 414.52578125 -50.413125 413.39140625 -50.859375 412.22265625 C-51.41625 411.04703125 -51.973125 409.87140625 -52.546875 408.66015625 C-55.21643249 407.77030375 -56.82485283 407.52822219 -59.56640625 407.484375 C-60.34177734 407.46052734 -61.11714844 407.43667969 -61.91601562 407.41210938 C-63.53294256 407.36945663 -65.1502084 407.33803541 -66.76757812 407.31835938 C-72.11840172 407.12804886 -75.4113956 406.36095752 -79.546875 402.66015625 C-80.13597656 401.49484375 -80.72507812 400.32953125 -81.33203125 399.12890625 C-82.99872606 395.90737533 -84.53414795 394.90386786 -87.91796875 393.62890625 C-89.59866304 393.11217514 -91.28808543 392.62313142 -92.984375 392.16015625 C-93.83064453 391.8971875 -94.67691406 391.63421875 -95.54882812 391.36328125 C-102.07651365 389.44126891 -106.060043 389.82718103 -112.3046875 392.65625 C-113.17738281 393.05005859 -114.05007813 393.44386719 -114.94921875 393.84960938 C-116.29693359 394.46739258 -116.29693359 394.46739258 -117.671875 395.09765625 C-118.57808594 395.50564453 -119.48429687 395.91363281 -120.41796875 396.33398438 C-123.98146432 397.95207533 -127.28285162 399.48414066 -130.546875 401.66015625 C-130.85625 402.77390625 -131.165625 403.88765625 -131.484375 405.03515625 C-132.61015106 408.87603926 -133.42716866 410.25352565 -136.546875 412.66015625 C-140.61658818 414.71635749 -143.48967148 414.67692075 -147.984375 414.28515625 C-152.70133114 414.10624053 -152.70133114 414.10624053 -156.65625 416.328125 C-158.16500743 418.3783919 -159.38386866 420.39899523 -160.546875 422.66015625 C-161.206875 423.65015625 -161.866875 424.64015625 -162.546875 425.66015625 C-163.27096739 415.16081663 -160.80917132 404.68448364 -154.40234375 396.2109375 C-149.22316479 391.88223424 -144.36946997 391.41785056 -137.859375 391.91015625 C-129.40258677 392.29779201 -124.37971066 389.73301909 -117.546875 384.66015625 C-124.81544451 383.70941509 -131.96976081 383.4446774 -139.296875 383.41015625 C-140.96169922 383.37921875 -140.96169922 383.37921875 -142.66015625 383.34765625 C-143.73136719 383.3425 -144.80257812 383.33734375 -145.90625 383.33203125 C-147.35209473 383.3180127 -147.35209473 383.3180127 -148.82714844 383.30371094 C-152.02737155 383.72312977 -153.87723692 384.89706372 -156.546875 386.66015625 C-163.24580898 388.01705711 -168.69394798 385.74129542 -174.546875 382.66015625 C-176.89958093 381.48380328 -178.367627 381.52656266 -180.984375 381.53515625 C-181.76683594 381.53257812 -182.54929687 381.53 -183.35546875 381.52734375 C-185.72582847 381.57633077 -185.72582847 381.57633077 -188.546875 382.66015625 C-187.08996327 379.26069555 -185.4282822 376.99643236 -182.546875 374.66015625 C-180.21676591 373.98230633 -177.88327676 373.31598832 -175.546875 372.66015625 C-172.87289024 370.72117746 -172.87289024 370.72117746 -170.546875 368.66015625 C-166.78960381 366.41048036 -164.19065761 366.4066085 -159.93359375 366.9765625 C-154.90189851 368.41771907 -151.17859493 372.02843632 -147.546875 375.66015625 C-144.43648556 375.93920254 -144.43648556 375.93920254 -140.7890625 375.85546875 C-140.12601105 375.85263885 -139.46295959 375.84980896 -138.77981567 375.84689331 C-136.66031917 375.8356906 -134.54124396 375.81058676 -132.421875 375.78515625 C-130.98568318 375.77512653 -129.54948475 375.76600066 -128.11328125 375.7578125 C-124.59100872 375.73575125 -121.06898297 375.70122119 -117.546875 375.66015625 C-118.06636719 375.21285156 -118.58585937 374.76554687 -119.12109375 374.3046875 C-119.81847656 373.70011719 -120.51585937 373.09554688 -121.234375 372.47265625 C-121.96970459 371.83835693 -122.70503418 371.20405762 -123.46264648 370.55053711 C-125.546875 368.66015625 -125.546875 368.66015625 -128.08203125 365.7265625 C-131.49163163 362.86811781 -133.61896158 363.27673462 -137.984375 363.59765625 C-143.98645998 364.02767445 -146.87087989 363.55350253 -151.546875 359.66015625 C-153.5234375 357.37109375 -153.5234375 357.37109375 -155.171875 355.03515625 C-157.37815568 351.91736055 -158.93738349 350.0259098 -162.546875 348.66015625 C-164.87182777 348.27266412 -167.20538768 347.93032786 -169.546875 347.66015625 C-164.7682666 342.72226091 -164.7682666 342.72226091 -159.859375 342.47265625 C-156.93107477 342.49399177 -154.46676238 342.85547945 -151.671875 343.72265625 C-148.67627328 345.01042402 -148.67627328 345.01042402 -146.546875 343.66015625 C-142.35621828 343.16666193 -138.76718684 342.85731951 -135.171875 345.22265625 C-133.546875 347.66015625 -133.546875 347.66015625 -132.484375 350.97265625 C-130.64251117 355.57244317 -126.99471387 357.27933759 -122.84765625 359.6796875 C-120.37907972 361.16083342 -118.14082917 362.65223066 -115.83984375 364.359375 C-108.44499653 370.24553014 -108.44499653 370.24553014 -99.546875 372.03515625 C-97.0897475 371.49331273 -97.0897475 371.49331273 -94.546875 370.66015625 C-93.55816406 370.41265625 -92.56945312 370.16515625 -91.55078125 369.91015625 C-88.39007113 369.10652507 -85.25125543 368.24090223 -82.11035156 367.36376953 C-76.58260656 365.84653514 -71.03182766 364.41576981 -65.484375 362.97265625 C-64.30625244 362.66312012 -63.12812988 362.35358398 -61.91430664 362.03466797 C-60.79145264 361.74221191 -59.66859863 361.44975586 -58.51171875 361.1484375 C-57.00532837 360.75458862 -57.00532837 360.75458862 -55.46850586 360.3527832 C-52.50767054 359.6508621 -49.55312508 359.12585822 -46.546875 358.66015625 C-47.60700206 357.4289424 -48.67011505 356.2002994 -49.734375 354.97265625 C-50.36859375 354.23917969 -51.0028125 353.50570313 -51.65625 352.75 C-53.6371327 350.48622561 -53.6371327 350.48622561 -56.484375 348.03515625 C-58.546875 345.66015625 -58.546875 345.66015625 -59.046875 342.47265625 C-58.881875 341.54453125 -58.716875 340.61640625 -58.546875 339.66015625 C-55.20129051 337.42976659 -52.14331093 336.76588225 -48.296875 335.91015625 C-28.05198254 331.05662912 -11.24034631 322.30563184 0.078125 304.09765625 C2.75659613 299.30103783 4.91988027 294.4028493 6.890625 289.28515625 C7.1498877 288.6192749 7.40915039 287.95339355 7.67626953 287.26733398 C9.13623056 283.27426532 9.89955915 279.90433846 9.453125 275.66015625 C8.463125 274.17515625 8.463125 274.17515625 7.453125 272.66015625 C4.86932323 272.40984648 4.86932323 272.40984648 2.453125 272.66015625 C1.98003906 273.66433594 1.50695312 274.66851562 1.01953125 275.703125 C-5.39588555 289.07816746 -12.37915686 301.61123951 -24.546875 310.66015625 C-27.30735043 311.58031473 -29.18049769 311.8528287 -32.046875 311.91015625 C-32.8203125 311.9359375 -33.59375 311.96171875 -34.390625 311.98828125 C-36.546875 311.66015625 -36.546875 311.66015625 -38.390625 310.45703125 C-39.546875 308.66015625 -39.546875 308.66015625 -39.59375 306.2890625 C-38.17464292 302.72540927 -35.70607299 300.92975556 -32.796875 298.59765625 C-26.74098892 293.4281495 -23.89852639 288.31891281 -21.546875 280.66015625 C-21.17433594 279.61859375 -20.80179688 278.57703125 -20.41796875 277.50390625 C-19.37250803 274.09092239 -19.56105299 272.07261707 -20.546875 268.66015625 C-21.61032552 266.67985943 -21.61032552 266.67985943 -23.546875 265.66015625 C-26.50433992 265.07670149 -26.50433992 265.07670149 -29.546875 265.66015625 C-33.59568314 268.75493489 -34.69493451 272.42326498 -35.984375 277.16015625 C-36.41015956 278.60272023 -36.83988885 280.04412541 -37.2734375 281.484375 C-37.59296387 282.54857666 -37.59296387 282.54857666 -37.91894531 283.63427734 C-42.84611004 299.53070538 -51.81902595 311.83217322 -66.56640625 319.71484375 C-70.71152785 321.69338306 -73.98078631 322.04711292 -78.546875 321.66015625 C-84.08533654 318.58323317 -84.08533654 318.58323317 -85.546875 315.66015625 C-85.921875 312.28515625 -85.921875 312.28515625 -85.546875 308.66015625 C-81.89033257 305.13519394 -77.66438775 303.08073728 -73.171875 300.84765625 C-63.31493666 295.75186803 -57.40234627 289.94160798 -53.296875 279.47265625 C-52.07097414 273.24099353 -50.91488603 266.1081397 -54.546875 260.66015625 C-59.92735125 261.03553831 -62.107987 262.81991262 -65.546875 266.66015625 C-67.00031375 268.10260492 -68.45914699 269.5396283 -69.921875 270.97265625 C-73.35893093 274.35346945 -76.52806424 277.90654596 -79.68652344 281.54370117 C-82.71169815 284.98533366 -85.84477225 288.32311456 -88.984375 291.66015625 C-89.64179688 292.36076172 -90.29921875 293.06136719 -90.9765625 293.78320312 C-94.86519862 297.91439773 -98.81226073 301.96879258 -102.86328125 305.94140625 C-104.66316258 307.77887211 -106.32093122 309.69872595 -107.984375 311.66015625 C-116.37721245 321.30339386 -125.87017364 328.68136347 -138.9453125 330.00390625 C-149.43814671 330.41619836 -156.84650567 328.87638765 -165.546875 322.66015625 C-169.18732242 318.98380698 -170.37820847 315.94623855 -171.046875 310.84765625 C-170.50684024 307.40493467 -170.23090521 306.69496305 -167.546875 304.66015625 C-165.43725586 304.25952148 -165.43725586 304.25952148 -163.01171875 304.21875 C-162.11904297 304.19232422 -161.22636719 304.16589844 -160.30664062 304.13867188 C-158.90961914 304.11836914 -158.90961914 304.11836914 -157.484375 304.09765625 C-137.03800582 303.70417659 -120.23788092 297.20747053 -105.359375 282.91015625 C-96.32345561 273.43488908 -80.93851832 257.0387041 -80.421875 243.34765625 C-80.463125 242.46078125 -80.504375 241.57390625 -80.546875 240.66015625 C-87.39195756 241.24687761 -90.76856764 246.88985134 -94.984375 251.78515625 C-106.76921685 264.73802237 -121.59869321 274.85817141 -138.546875 279.66015625 C-139.536875 279.99015625 -140.526875 280.32015625 -141.546875 280.66015625 C-144.62573445 280.91152281 -147.70880253 280.89141226 -150.796875 280.91015625 C-152.04791016 280.94109375 -152.04791016 280.94109375 -153.32421875 280.97265625 C-158.83574189 281.0072655 -162.71253848 280.38180072 -167.546875 277.66015625 C-171.48891031 273.19251623 -172.81060162 266.49654104 -172.546875 260.66015625 C-171.546875 258.09765625 -171.546875 258.09765625 -169.546875 256.66015625 C-165.89967616 256.24726582 -163.27485157 256.39173447 -159.82421875 257.6640625 C-155.97682376 258.83341378 -152.40451624 259.00412536 -148.421875 258.97265625 C-147.67268799 258.9670166 -146.92350098 258.96137695 -146.15161133 258.95556641 C-130.8936161 258.62561083 -118.00892616 252.54263145 -106.546875 242.66015625 C-105.73476563 241.96921875 -104.92265625 241.27828125 -104.0859375 240.56640625 C-91.60913557 229.95830368 -91.60913557 229.95830368 -84.546875 215.66015625 C-84.2109238 211.86696216 -84.2109238 211.86696216 -84.546875 208.66015625 C-85.6330858 207.36920472 -85.6330858 207.36920472 -88.2421875 207.32421875 C-92.52447412 207.75953394 -94.14997002 209.27315854 -97.421875 212.03515625 C-112.40335593 224.16726514 -131.11199661 236.71737431 -150.921875 236.97265625 C-151.664375 237.00166016 -152.406875 237.03066406 -153.171875 237.06054688 C-159.26534297 237.13052486 -162.75376773 235.37365001 -167.19140625 231.0625 C-170.7674221 226.57753029 -171.64561124 223.49290672 -172.0703125 217.79296875 C-171.43705259 215.2126709 -170.45715092 213.44738367 -168.49560547 211.63720703 C-163.83739219 209.30168091 -157.9828848 210.30963975 -152.921875 210.53515625 C-129.00350821 211.46966477 -112.58805651 201.58500458 -95.359375 186.03515625 C-94.66457031 185.38289062 -93.96976562 184.730625 -93.25390625 184.05859375 C-91.546875 182.66015625 -91.546875 182.66015625 -89.546875 182.66015625 C-87.70996243 178.87827744 -87.38849874 176.71447317 -88.546875 172.66015625 C-92.98579844 173.24094997 -96.30290628 175.07694113 -100.109375 177.28515625 C-106.16604055 180.65362646 -112.31832962 183.25238354 -118.859375 185.53515625 C-119.67027588 185.82084473 -120.48117676 186.1065332 -121.31665039 186.40087891 C-133.95020744 190.67487984 -150.77700422 194.33768703 -163.484375 188.59765625 C-167.82898072 185.89080766 -169.78227302 183.4727071 -171.546875 178.66015625 C-172.40447542 173.81429754 -172.27184186 170.77026175 -169.546875 166.59765625 C-166.49262687 164.625121 -164.51060223 163.94152404 -160.8671875 164.15625 C-156.99894988 164.99632181 -153.58641398 166.70175885 -150.0625 168.46875 C-140.73520424 172.88618045 -128.60365711 171.47576907 -119.13671875 168.1875 C-100.15718597 160.61162833 -100.15718597 160.61162833 -85.27734375 147.69921875 C-84.15361764 144.56240042 -84.93005908 141.86759901 -85.546875 138.66015625 C-90.70566661 138.24934896 -94.23528638 139.61169614 -98.734375 141.91015625 C-100.06750232 142.55780105 -101.40215112 143.20232307 -102.73828125 143.84375 C-103.38812988 144.15683105 -104.03797852 144.46991211 -104.70751953 144.79248047 C-118.69043497 151.38861552 -137.27592139 154.90763343 -152.421875 150.22265625 C-160.53725515 146.72717624 -166.75556067 141.01829198 -170.671875 133.09765625 C-172.8663698 127.54138219 -173.90506333 122.85589349 -171.484375 117.16015625 C-169.546875 115.66015625 -169.546875 115.66015625 -166.296875 115.16015625 C-161.95362451 115.73925632 -159.09838145 117.25572021 -155.546875 119.66015625 C-154.81082031 120.15386719 -154.07476562 120.64757812 -153.31640625 121.15625 C-152.54683594 121.67316406 -151.77726562 122.19007813 -150.984375 122.72265625 C-140.9267612 129.46737361 -130.68310704 132.56116938 -118.57080078 130.28955078 C-108.16364449 127.94458544 -94.41785107 123.96615017 -87.6640625 115.22265625 C-86.4639831 112.47002657 -86.2923997 110.62903476 -86.546875 107.66015625 C-92.33155437 107.45149046 -97.78260523 107.61138513 -103.484375 108.66015625 C-122.45930561 111.7626923 -143.20048394 110.59781497 -159.546875 99.66015625 C-160.475 99.08265625 -161.403125 98.50515625 -162.359375 97.91015625 C-167.10145073 93.03259264 -172.31135773 85.31554754 -172.6640625 78.34375 C-172.27284238 74.71549892 -171.90032937 72.2175266 -169.921875 69.09765625 C-166.54036319 67.05095173 -164.4408692 67.1230536 -160.546875 67.66015625 C-156.42251966 70.17623716 -152.6992126 73.09555736 -148.921875 76.09765625 C-136.01553525 85.82139178 -123.08187818 88.01376303 -107.296875 87.97265625 C-105.41742188 87.99682617 -105.41742188 87.99682617 -103.5 88.02148438 C-102.2934375 88.02212891 -101.086875 88.02277344 -99.84375 88.0234375 C-98.20937988 88.02790894 -98.20937988 88.02790894 -96.54199219 88.0324707 C-93.12570159 87.60780139 -91.25796701 86.76280332 -88.546875 84.66015625 C-87.21027355 81.30422762 -87.21027355 81.30422762 -87.546875 77.66015625 C-89.16060447 74.69089403 -89.59127004 74.00361305 -92.546875 72.66015625 C-95.92170834 72.21408348 -99.25488576 72.08476776 -102.65625 71.953125 C-113.47233782 71.13866056 -123.77603228 67.18393807 -133.546875 62.66015625 C-135.06087891 61.9640625 -135.06087891 61.9640625 -136.60546875 61.25390625 C-151.48766964 54.1256164 -165.51006241 44.30323719 -172.421875 28.84765625 C-174.18117641 23.59082149 -174.24695071 18.12228544 -173.546875 12.66015625 C-171.796875 9.16015625 -171.796875 9.16015625 -169.546875 6.66015625 C-168.94875 5.85578125 -168.350625 5.05140625 -167.734375 4.22265625 C-165.546875 2.66015625 -165.546875 2.66015625 -162.171875 2.47265625 C-156.3935864 4.3655439 -154.17549427 8.33252782 -150.78125 13.18359375 C-136.58795927 33.31960377 -115.99935096 47.85397994 -91.546875 52.66015625 C-88.2881315 53.41569945 -88.2881315 53.41569945 -85.546875 52.66015625 C-84.78375 51.64953125 -84.020625 50.63890625 -83.234375 49.59765625 C-81.9040625 48.14359375 -81.9040625 48.14359375 -80.546875 46.66015625 C-72.90741957 46.69038159 -66.90382104 49.31362521 -60.046875 52.47265625 C-58.97115234 52.95822998 -57.89542969 53.44380371 -56.78710938 53.9440918 C-53.3652345 55.49838363 -49.95486557 57.07567195 -46.546875 58.66015625 C-45.40734375 59.18738281 -44.2678125 59.71460938 -43.09375 60.2578125 C-39.73860814 61.81665124 -36.39106719 63.39047665 -33.046875 64.97265625 C-32.02787109 65.45130127 -31.00886719 65.92994629 -29.95898438 66.4230957 C-17.11487407 72.5883965 -17.11487407 72.5883965 -12.546875 76.66015625 C-11.78576299 80.53490832 -12.18244982 82.69673336 -13.56640625 86.35546875 C-15.76459821 93.76451418 -16.20208023 104.27570988 -12.921875 111.41015625 C-10.15169118 115.79710216 -6.50297775 119.008122 -1.546875 120.66015625 C7.95851843 121.37887605 7.95851843 121.37887605 16.453125 117.66015625 C22.00682795 112.26513052 23.60748646 105.31273608 23.890625 97.78515625 C23.43935037 83.54292882 15.04336329 72.35761893 5.046875 62.7890625 C-9.16388507 51.12511034 -26.92950303 47.26405093 -44.52270508 43.75341797 C-60.47056465 40.54125756 -60.47056465 40.54125756 -65.546875 35.66015625 C-66.74584961 33.50195312 -66.74584961 33.50195312 -67.546875 31.66015625 C-66.10894108 31.97065351 -64.6715432 32.28363385 -63.234375 32.59765625 C-62.43386719 32.77167969 -61.63335937 32.94570312 -60.80859375 33.125 C-58.546875 33.66015625 -58.546875 33.66015625 -55.546875 34.66015625 C-53.94694057 34.80335176 -52.34043188 34.88055151 -50.734375 34.91015625 C-49.90292969 34.9359375 -49.07148437 34.96171875 -48.21484375 34.98828125 C-44.87433871 34.57744315 -42.47019717 33.28185322 -39.546875 31.66015625 C-40.15982422 31.64557373 -40.77277344 31.63099121 -41.40429688 31.6159668 C-79.05905724 30.61967873 -79.05905724 30.61967873 -89.546875 19.78515625 C-91.91765294 16.08081572 -92.05503942 13.97955378 -91.546875 9.66015625 C-90.546875 8.66015625 -90.546875 8.66015625 -87.484375 8.53515625 C-82.61922858 9.25996378 -80.55348499 12.82883068 -77.578125 16.43359375 C-72.69142062 21.79017355 -65.6031292 23.86936914 -58.546875 24.66015625 C-53.5394014 24.81038046 -48.55588047 24.77894689 -43.546875 24.66015625 C-43.546875 24.00015625 -43.546875 23.34015625 -43.546875 22.66015625 C-45.22850995 21.10616409 -45.22850995 21.10616409 -47.359375 19.59765625 C-48.06707031 19.07042969 -48.77476562 18.54320312 -49.50390625 18 C-53.52050642 15.36578612 -57.85988379 14.93106873 -62.546875 15.66015625 C-64.92407193 17.53517556 -64.92407193 17.53517556 -66.546875 19.66015625 C-67.206875 19.66015625 -67.866875 19.66015625 -68.546875 19.66015625 C-69.00230887 13.96723291 -68.22933886 11.05865475 -64.546875 6.66015625 C-60.19604891 3.50177879 -54.32847309 4.3366833 -49.18945312 4.35742188 C-44.84380394 4.24581034 -43.11265224 4.14025644 -39.68359375 1.23046875 C-38.97847656 0.38226563 -38.27335938 -0.4659375 -37.546875 -1.33984375 C-25.63207988 -7.98463334 -11.9089874 -4.6539463 0 0 Z " fill="#010000" transform="translate(567.546875,182.33984375)"/>
<path d="M0 0 C1.65515625 0.00193359 1.65515625 0.00193359 3.34375 0.00390625 C6.81418231 0.48066118 8.73564988 1.30915072 11.5 3.4375 C11.83 4.4275 12.16 5.4175 12.5 6.4375 C9.74782331 9.46489436 7.25393263 11.21464057 3.1328125 11.73828125 C-2.1053045 11.76275843 -6.08483374 11.60736295 -10.5 8.4375 C-11.375 6.25 -11.375 6.25 -11.5 4.4375 C-7.64326687 0.8038242 -5.28140657 -0.09254801 0 0 Z " fill="#F20000" transform="translate(729.5,193.5625)"/>
<path d="M0 0 C1.65515625 0.00193359 1.65515625 0.00193359 3.34375 0.00390625 C6.79662865 0.47824973 8.7271065 1.35656717 11.5 3.4375 C12.3125 5.625 12.3125 5.625 12.5 7.4375 C6.40160954 11.12863107 2.65732192 12.0512979 -4.5 11.4375 C-8.0625 10.1875 -8.0625 10.1875 -10.5 8.4375 C-11.375 6.25 -11.375 6.25 -11.5 4.4375 C-7.64326687 0.8038242 -5.28140657 -0.09254801 0 0 Z " fill="#F20000" transform="translate(549.5,193.5625)"/>
</svg>
