<svg xmlns="http://www.w3.org/2000/svg" width="512" height="512" viewBox="0 0 512 512" role="img">
  <title>MAV-start</title>
  <desc>Vector trace created from the provided image.</desc>
  <path d="M 250.00 179.00 L 229.00 184.00 L 215.00 192.00 L 265.00 192.00 L 275.00 194.00 L 292.00 202.00 L 308.00 216.00 L 315.00 226.00 L 322.00 243.00 L 324.00 255.00 L 323.00 273.00 L 319.00 286.00 L 310.00 302.00 L 293.00 318.00 L 277.00 326.00 L 262.00 329.00 L 215.00 329.00 L 241.00 340.00 L 267.00 341.00 L 294.00 332.00 L 306.00 324.00 L 318.00 312.00 L 328.00 297.00 L 336.00 274.00 L 337.00 254.00 L 333.00 235.00 L 328.00 223.00 L 318.00 208.00 L 307.00 197.00 L 292.00 187.00 L 279.00 182.00 L 264.00 179.00 Z M 223.00 1.00 L 196.00 6.00 L 169.00 14.00 L 141.00 26.00 L 120.00 38.00 L 84.00 65.00 L 65.00 84.00 L 46.00 108.00 L 26.00 141.00 L 14.00 169.00 L 6.00 196.00 L 0.00 236.00 L 2.00 296.00 L 14.00 342.00 L 26.00 370.00 L 39.00 393.00 L 63.00 425.00 L 87.00 449.00 L 106.00 464.00 L 149.00 489.00 L 195.00 505.00 L 232.00 511.00 L 279.00 511.00 L 298.00 509.00 L 300.00 507.00 L 312.00 506.00 L 343.00 497.00 L 371.00 485.00 L 392.00 473.00 L 423.00 450.00 L 450.00 423.00 L 467.00 401.00 L 485.00 371.00 L 493.00 353.00 L 506.00 312.00 L 511.00 279.00 L 511.00 232.00 L 509.00 214.00 L 497.00 168.00 L 476.00 124.00 L 449.00 87.00 L 424.00 62.00 L 405.00 47.00 L 370.00 26.00 L 342.00 14.00 L 315.00 6.00 L 276.00 0.00 Z M 41.00 193.00 L 142.00 192.00 L 160.00 167.00 L 189.00 144.00 L 223.00 130.00 L 245.00 126.00 L 270.00 126.00 L 296.00 131.00 L 325.00 144.00 L 343.00 157.00 L 357.00 171.00 L 372.00 192.00 L 470.00 192.00 L 471.00 195.00 L 455.00 245.00 L 388.00 245.00 L 388.00 275.00 L 448.00 276.00 L 431.00 329.00 L 370.00 329.00 L 357.00 348.00 L 341.00 364.00 L 319.00 379.00 L 284.00 392.00 L 244.00 394.00 L 215.00 388.00 L 181.00 371.00 L 159.00 352.00 L 142.00 329.00 L 80.00 329.00 L 77.00 324.00 L 64.00 276.00 L 261.00 275.00 L 270.00 268.00 L 272.00 262.00 L 271.00 254.00 L 266.00 248.00 L 260.00 245.00 L 57.00 245.00 L 53.00 237.00 Z" fill="#fdfdfd" fill-rule="evenodd"/>
  <path d="M 56.00 205.00 L 65.00 234.00 L 264.00 234.00 L 272.00 238.00 L 280.00 247.00 L 284.00 261.00 L 280.00 274.00 L 271.00 283.00 L 265.00 286.00 L 79.00 287.00 L 87.00 317.00 L 148.00 317.00 L 162.00 338.00 L 179.00 355.00 L 193.00 365.00 L 214.00 375.00 L 236.00 381.00 L 272.00 382.00 L 302.00 374.00 L 326.00 361.00 L 347.00 342.00 L 364.00 317.00 L 424.00 317.00 L 433.00 287.00 L 376.00 287.00 L 374.00 285.00 L 377.00 271.00 L 375.00 235.00 L 446.00 234.00 L 456.00 204.00 L 366.00 204.00 L 346.00 176.00 L 317.00 153.00 L 303.00 146.00 L 272.00 138.00 L 244.00 138.00 L 212.00 146.00 L 186.00 160.00 L 164.00 180.00 L 147.00 204.00 Z M 257.00 167.00 L 276.00 169.00 L 289.00 173.00 L 313.00 187.00 L 328.00 202.00 L 338.00 217.00 L 346.00 238.00 L 348.00 250.00 L 346.00 282.00 L 339.00 301.00 L 328.00 318.00 L 312.00 334.00 L 300.00 342.00 L 281.00 350.00 L 263.00 353.00 L 242.00 352.00 L 222.00 346.00 L 203.00 335.00 L 185.00 319.00 L 186.00 317.00 L 270.00 316.00 L 289.00 307.00 L 300.00 296.00 L 307.00 285.00 L 312.00 268.00 L 311.00 246.00 L 302.00 227.00 L 288.00 213.00 L 266.00 204.00 L 185.00 203.00 L 198.00 189.00 L 216.00 177.00 L 238.00 169.00 Z" fill="#feb51c" fill-rule="evenodd"/>
  <path d="M 257.00 168.00 L 238.00 170.00 L 218.00 177.00 L 198.00 190.00 L 186.00 203.00 L 266.00 203.00 L 288.00 212.00 L 303.00 227.00 L 312.00 246.00 L 313.00 268.00 L 308.00 285.00 L 301.00 296.00 L 289.00 308.00 L 270.00 317.00 L 186.00 319.00 L 203.00 334.00 L 222.00 345.00 L 242.00 351.00 L 263.00 352.00 L 281.00 349.00 L 300.00 341.00 L 312.00 333.00 L 327.00 318.00 L 337.00 303.00 L 345.00 282.00 L 347.00 250.00 L 345.00 238.00 L 337.00 217.00 L 327.00 202.00 L 313.00 188.00 L 289.00 174.00 L 276.00 170.00 Z M 250.00 178.00 L 264.00 178.00 L 279.00 181.00 L 292.00 186.00 L 307.00 196.00 L 319.00 208.00 L 329.00 223.00 L 334.00 235.00 L 338.00 254.00 L 337.00 274.00 L 329.00 297.00 L 319.00 312.00 L 306.00 325.00 L 294.00 333.00 L 267.00 342.00 L 241.00 341.00 L 228.00 337.00 L 214.00 329.00 L 216.00 327.00 L 269.00 327.00 L 293.00 317.00 L 309.00 302.00 L 318.00 286.00 L 322.00 273.00 L 323.00 255.00 L 321.00 243.00 L 314.00 226.00 L 307.00 216.00 L 292.00 203.00 L 275.00 195.00 L 265.00 193.00 L 214.00 192.00 L 229.00 183.00 Z M 42.00 193.00 L 57.00 244.00 L 260.00 244.00 L 266.00 247.00 L 272.00 254.00 L 273.00 262.00 L 271.00 268.00 L 261.00 276.00 L 65.00 276.00 L 80.00 328.00 L 142.00 328.00 L 160.00 352.00 L 181.00 370.00 L 215.00 387.00 L 244.00 393.00 L 279.00 392.00 L 301.00 386.00 L 319.00 378.00 L 341.00 363.00 L 356.00 348.00 L 370.00 328.00 L 431.00 328.00 L 447.00 276.00 L 388.00 276.00 L 387.00 245.00 L 455.00 244.00 L 470.00 193.00 L 372.00 193.00 L 356.00 171.00 L 343.00 158.00 L 325.00 145.00 L 296.00 132.00 L 270.00 127.00 L 232.00 129.00 L 216.00 133.00 L 189.00 145.00 L 161.00 167.00 L 142.00 193.00 Z M 55.00 205.00 L 57.00 203.00 L 147.00 203.00 L 163.00 180.00 L 186.00 159.00 L 212.00 145.00 L 244.00 137.00 L 272.00 137.00 L 303.00 145.00 L 317.00 152.00 L 333.00 163.00 L 347.00 176.00 L 366.00 203.00 L 457.00 204.00 L 449.00 232.00 L 446.00 235.00 L 376.00 235.00 L 378.00 271.00 L 375.00 285.00 L 433.00 286.00 L 424.00 318.00 L 364.00 318.00 L 348.00 342.00 L 326.00 362.00 L 302.00 375.00 L 272.00 383.00 L 236.00 382.00 L 214.00 376.00 L 193.00 366.00 L 179.00 356.00 L 161.00 338.00 L 148.00 318.00 L 87.00 318.00 L 78.00 289.00 L 79.00 286.00 L 265.00 285.00 L 279.00 274.00 L 283.00 261.00 L 281.00 251.00 L 272.00 239.00 L 264.00 235.00 L 65.00 235.00 Z" fill="#0a2d67" fill-rule="evenodd"/>
</svg>