<svg xmlns="http://www.w3.org/2000/svg" width="512" height="512" viewBox="0 0 512 512" role="img">
  <title>OBB</title>
  <desc>Vector trace created from the provided image.</desc>
  <path d="M 361.00 265.00 L 361.00 293.00 L 396.00 293.00 L 402.00 290.00 L 402.00 289.00 L 405.00 285.00 L 405.00 282.00 L 406.00 281.00 L 405.00 272.00 L 404.00 270.00 L 401.00 267.00 L 399.00 266.00 L 396.00 266.00 L 395.00 265.00 Z M 250.00 265.00 L 250.00 293.00 L 284.00 293.00 L 285.00 292.00 L 287.00 292.00 L 289.00 291.00 L 293.00 287.00 L 294.00 285.00 L 294.00 281.00 L 295.00 280.00 L 295.00 277.00 L 294.00 276.00 L 294.00 272.00 L 293.00 270.00 L 290.00 267.00 L 288.00 266.00 L 285.00 266.00 L 284.00 265.00 Z M 361.00 220.00 L 361.00 245.00 L 362.00 244.00 L 363.00 245.00 L 388.00 245.00 L 389.00 244.00 L 394.00 244.00 L 395.00 243.00 L 397.00 243.00 L 402.00 238.00 L 402.00 235.00 L 403.00 234.00 L 403.00 230.00 L 402.00 229.00 L 402.00 227.00 L 401.00 225.00 L 398.00 222.00 L 394.00 220.00 Z M 250.00 220.00 L 250.00 245.00 L 277.00 245.00 L 278.00 244.00 L 283.00 244.00 L 284.00 243.00 L 286.00 243.00 L 290.00 239.00 L 291.00 237.00 L 291.00 235.00 L 292.00 234.00 L 291.00 227.00 L 290.00 225.00 L 287.00 222.00 L 285.00 221.00 L 283.00 221.00 L 282.00 220.00 Z M 242.00 0.00 L 195.00 7.00 L 153.00 21.00 L 129.00 33.00 L 106.00 48.00 L 87.00 63.00 L 64.00 86.00 L 40.00 118.00 L 16.00 166.00 L 8.00 191.00 L 2.00 221.00 L 0.00 270.00 L 5.00 307.00 L 21.00 357.00 L 45.00 400.00 L 63.00 423.00 L 88.00 448.00 L 129.00 477.00 L 165.00 494.00 L 186.00 501.00 L 220.00 508.00 L 273.00 510.00 L 325.00 501.00 L 363.00 487.00 L 407.00 461.00 L 443.00 429.00 L 474.00 388.00 L 495.00 345.00 L 508.00 296.00 L 511.00 270.00 L 511.00 240.00 L 502.00 187.00 L 488.00 149.00 L 465.00 109.00 L 447.00 86.00 L 423.00 62.00 L 381.00 32.00 L 342.00 14.00 L 292.00 2.00 Z M 336.00 199.00 L 394.00 199.00 L 400.00 200.00 L 414.00 206.00 L 423.00 215.00 L 427.00 226.00 L 427.00 234.00 L 423.00 245.00 L 416.00 253.00 L 422.00 258.00 L 428.00 268.00 L 430.00 276.00 L 430.00 286.00 L 428.00 293.00 L 423.00 301.00 L 414.00 309.00 L 399.00 314.00 L 336.00 314.00 L 335.00 313.00 L 335.00 200.00 Z M 225.00 199.00 L 283.00 199.00 L 289.00 200.00 L 300.00 204.00 L 307.00 209.00 L 312.00 215.00 L 316.00 225.00 L 316.00 235.00 L 311.00 247.00 L 306.00 253.00 L 311.00 258.00 L 317.00 268.00 L 319.00 275.00 L 319.00 286.00 L 317.00 293.00 L 313.00 300.00 L 303.00 309.00 L 287.00 314.00 L 225.00 314.00 L 224.00 313.00 L 224.00 200.00 Z M 200.00 200.00 L 200.00 201.00 L 188.00 213.00 L 188.00 214.00 L 178.00 224.00 L 178.00 225.00 L 158.00 246.00 L 131.00 246.00 L 130.00 245.00 L 130.00 244.00 L 141.00 233.00 L 141.00 232.00 L 152.00 221.00 L 152.00 220.00 L 172.00 199.00 L 199.00 199.00 Z M 140.00 195.00 L 152.00 195.00 L 165.00 199.00 L 146.00 220.00 L 129.00 224.00 L 123.00 228.00 L 114.00 239.00 L 110.00 252.00 L 111.00 265.00 L 116.00 276.00 L 122.00 283.00 L 134.00 290.00 L 143.00 292.00 L 155.00 291.00 L 170.00 283.00 L 176.00 276.00 L 182.00 259.00 L 181.00 247.00 L 175.00 235.00 L 191.00 217.00 L 195.00 220.00 L 203.00 234.00 L 207.00 250.00 L 207.00 262.00 L 203.00 278.00 L 191.00 297.00 L 170.00 312.00 L 150.00 317.00 L 134.00 316.00 L 124.00 313.00 L 106.00 302.00 L 91.00 283.00 L 85.00 263.00 L 87.00 239.00 L 99.00 217.00 L 119.00 201.00 Z" fill="#e20429" fill-rule="evenodd"/>
  <path d="M 337.00 201.00 L 337.00 313.00 L 338.00 312.00 L 339.00 313.00 L 391.00 313.00 L 405.00 311.00 L 417.00 305.00 L 424.00 297.00 L 428.00 287.00 L 427.00 270.00 L 421.00 259.00 L 415.00 253.00 L 422.00 244.00 L 425.00 236.00 L 425.00 224.00 L 423.00 218.00 L 419.00 212.00 L 407.00 204.00 L 396.00 201.00 Z M 359.00 265.00 L 360.00 264.00 L 398.00 264.00 L 402.00 266.00 L 405.00 269.00 L 407.00 273.00 L 407.00 284.00 L 406.00 285.00 L 406.00 287.00 L 400.00 293.00 L 398.00 294.00 L 395.00 294.00 L 394.00 295.00 L 360.00 295.00 L 359.00 294.00 Z M 359.00 220.00 L 361.00 218.00 L 392.00 218.00 L 393.00 219.00 L 396.00 219.00 L 398.00 220.00 L 403.00 225.00 L 404.00 227.00 L 404.00 237.00 L 403.00 239.00 L 398.00 244.00 L 396.00 245.00 L 394.00 245.00 L 393.00 246.00 L 360.00 246.00 L 359.00 245.00 Z M 226.00 201.00 L 226.00 313.00 L 281.00 313.00 L 294.00 311.00 L 305.00 306.00 L 312.00 299.00 L 317.00 288.00 L 316.00 270.00 L 310.00 259.00 L 304.00 253.00 L 310.00 246.00 L 314.00 237.00 L 314.00 223.00 L 309.00 213.00 L 302.00 207.00 L 285.00 201.00 Z M 248.00 265.00 L 249.00 264.00 L 287.00 264.00 L 291.00 266.00 L 294.00 269.00 L 296.00 273.00 L 296.00 284.00 L 294.00 288.00 L 289.00 293.00 L 287.00 293.00 L 286.00 294.00 L 283.00 294.00 L 282.00 295.00 L 249.00 295.00 L 248.00 294.00 Z M 248.00 220.00 L 250.00 218.00 L 280.00 218.00 L 281.00 219.00 L 285.00 219.00 L 287.00 220.00 L 292.00 225.00 L 292.00 227.00 L 293.00 228.00 L 293.00 237.00 L 292.00 239.00 L 287.00 244.00 L 285.00 245.00 L 283.00 245.00 L 282.00 246.00 L 249.00 246.00 L 248.00 245.00 Z M 198.00 201.00 L 172.00 201.00 L 132.00 244.00 L 158.00 244.00 L 178.00 223.00 L 178.00 222.00 L 189.00 211.00 L 189.00 210.00 Z M 137.00 197.00 L 115.00 205.00 L 99.00 219.00 L 89.00 238.00 L 87.00 265.00 L 95.00 287.00 L 112.00 305.00 L 133.00 314.00 L 154.00 315.00 L 166.00 312.00 L 178.00 306.00 L 195.00 290.00 L 204.00 269.00 L 205.00 247.00 L 200.00 231.00 L 191.00 219.00 L 177.00 234.00 L 183.00 249.00 L 183.00 263.00 L 177.00 277.00 L 167.00 287.00 L 153.00 293.00 L 139.00 293.00 L 125.00 287.00 L 115.00 277.00 L 109.00 264.00 L 109.00 248.00 L 111.00 242.00 L 120.00 229.00 L 132.00 221.00 L 145.00 219.00 L 163.00 200.00 L 154.00 197.00 Z" fill="#fefefe" fill-rule="evenodd"/>
</svg>